<?xml version="1.0" standalone="no"?>
<!DOCTYPE svg PUBLIC "-//W3C//DTD SVG 20010904//EN"
 "http://www.w3.org/TR/2001/REC-SVG-20010904/DTD/svg10.dtd">
<svg version="1.0" xmlns="http://www.w3.org/2000/svg"
 width="658.000000pt" height="658.000000pt" viewBox="0 0 658.000000 658.000000"
 preserveAspectRatio="xMidYMid meet">
<metadata>
Created by potrace 1.14, written by Peter Selinger 2001-2017
</metadata>
<g transform="translate(0.000000,658.000000) scale(0.100000,-0.100000)"
fill="#000000" stroke="none">
<path d="M3020 6570 c-30 -4 -82 -10 -115 -14 -84 -10 -238 -34 -293 -47 -26
-6 -58 -13 -72 -15 -48 -10 -266 -73 -340 -100 -533 -191 -1027 -529 -1399
-959 -48 -55 -107 -127 -132 -160 -57 -74 -189 -271 -189 -280 0 -4 -9 -20
-20 -35 -33 -46 -143 -267 -193 -385 -110 -265 -177 -504 -221 -795 -18 -113
-27 -154 -37 -166 -9 -11 -10 -89 -6 -302 3 -158 8 -296 10 -307 3 -11 8 -54
12 -95 3 -41 13 -113 20 -160 8 -47 17 -103 21 -125 3 -22 8 -43 10 -46 2 -4
6 -24 10 -45 3 -20 10 -48 15 -61 5 -13 6 -23 4 -23 -2 0 0 -12 6 -27 6 -16
22 -66 36 -113 30 -106 115 -323 160 -410 18 -36 33 -68 33 -72 0 -16 141
-256 226 -383 217 -327 496 -620 799 -837 284 -203 621 -369 985 -482 63 -20
124 -38 135 -40 11 -3 43 -10 70 -16 47 -11 114 -23 195 -36 43 -6 77 -13 110
-21 14 -3 201 -8 415 -10 406 -4 425 -3 660 42 569 111 1090 365 1525 743 124
108 320 311 417 432 76 95 249 345 284 411 205 386 302 646 373 999 14 69 28
141 32 160 4 19 9 257 11 529 3 413 2 495 -10 505 -8 6 -22 54 -31 106 -39
213 -97 397 -194 620 -46 105 -66 150 -124 265 -43 86 -190 325 -260 422 -328
456 -765 809 -1293 1045 -72 33 -276 112 -325 126 -19 6 -66 20 -105 32 -38
12 -77 23 -85 25 -8 1 -40 10 -70 19 -30 8 -66 17 -80 20 -14 3 -47 9 -75 14
-27 6 -75 13 -105 17 -30 3 -66 8 -80 10 -14 2 -56 7 -95 10 -38 4 -90 11
-115 15 -54 10 -432 10 -510 0z"/>
</g>
</svg>
